<svg xmlns="http://www.w3.org/2000/svg" viewBox="0 0 64 64">
  <defs>
    <linearGradient id="badge" x1="12" y1="8" x2="52" y2="58" gradientUnits="userSpaceOnUse">
      <stop stop-color="#5bb4ff"/>
      <stop offset=".45" stop-color="#1877f2"/>
      <stop offset="1" stop-color="#0a4fb8"/>
    </linearGradient>
    <radialGradient id="shine" cx="0" cy="0" r="1" gradientTransform="translate(23 18) rotate(49) scale(34 29)" gradientUnits="userSpaceOnUse">
      <stop stop-color="#ffffff" stop-opacity=".72"/>
      <stop offset=".45" stop-color="#ffffff" stop-opacity=".18"/>
      <stop offset="1" stop-color="#ffffff" stop-opacity="0"/>
    </radialGradient>
    <filter id="shadow" x="3" y="3" width="58" height="58" filterUnits="userSpaceOnUse">
      <feDropShadow dx="0" dy="3" stdDeviation="3" flood-color="#083f92" flood-opacity=".38"/>
    </filter>
  </defs>
  <rect width="64" height="64" rx="14" fill="#f4f9ff"/>
  <g filter="url(#shadow)">
    <path d="M32 6.5 38.2 12.4 46.7 11.5 48.1 20 55 25.1 51 32.7 53.2 41 44.9 43.5 40.8 51 32 48.3 23.2 51 19.1 43.5 10.8 41 13 32.7 9 25.1 15.9 20 17.3 11.5 25.8 12.4 32 6.5Z" fill="url(#badge)"/>
    <path d="M32 6.5 38.2 12.4 46.7 11.5 48.1 20 55 25.1 51 32.7 53.2 41 44.9 43.5 40.8 51 32 48.3 23.2 51 19.1 43.5 10.8 41 13 32.7 9 25.1 15.9 20 17.3 11.5 25.8 12.4 32 6.5Z" fill="url(#shine)"/>
    <path d="M23.8 32.4 29.3 37.8 41.2 25.2" fill="none" stroke="#fff" stroke-width="6.2" stroke-linecap="round" stroke-linejoin="round"/>
  </g>
</svg>
